<svg width="24" height="24" viewBox="0 0 24 24" fill="none" xmlns="http://www.w3.org/2000/svg">
<g id="icon/action/alarm_24px">
<path id="icon/action/alarm_24px_2" fill-rule="evenodd" clip-rule="evenodd" d="M7.94458 3.44101L6.66333 1.90521L2.05603 5.74881L3.33716 7.28461L7.94458 3.44101ZM17.3365 1.90582L21.9438 5.74942L20.6627 7.28522L16.0553 3.44162L17.3365 1.90582ZM12.5 8.09482H11V14.0948L15.75 16.9448L16.5 15.7148L12.5 13.3448V8.09482ZM12 4.09482C7.03003 4.09482 3 8.12482 3 13.0948C3 18.0648 7.03003 22.0948 12 22.0948C16.97 22.0948 21 18.0648 21 13.0948C21 8.12482 16.97 4.09482 12 4.09482ZM5 13.0948C5 16.9548 8.14001 20.0948 12 20.0948C15.86 20.0948 19 16.9548 19 13.0948C19 9.23483 15.86 6.09482 12 6.09482C8.14001 6.09482 5 9.23483 5 13.0948Z" fill="black" fill-opacity="0.54"/>
</g>
</svg>
